<?xml version="1.0" standalone="no"?>
<!DOCTYPE svg PUBLIC "-//W3C//DTD SVG 20010904//EN"
 "http://www.w3.org/TR/2001/REC-SVG-20010904/DTD/svg10.dtd">
<svg version="1.0" xmlns="http://www.w3.org/2000/svg"
 width="2000.000000pt" height="383.000000pt" viewBox="0 0 2000.000000 383.000000"
 preserveAspectRatio="xMidYMid meet">

<g transform="translate(0.000000,383.000000) scale(0.100000,-0.100000)"
fill="#000000" stroke="none">
<path d="M18800 2293 c0 -1675 -1 -1637 59 -1803 78 -214 248 -368 472 -430
156 -42 390 -42 548 0 l81 22 0 37 c0 36 -21 354 -24 358 -1 1 -28 -8 -61 -20
-87 -30 -266 -30 -346 2 -114 44 -179 114 -222 241 l-22 65 -3 1528 -3 1527
-239 0 -240 0 0 -1527z"/>
<path d="M1210 3630 c-634 -77 -1021 -397 -1080 -894 -13 -114 -7 -224 20
-342 44 -190 142 -330 326 -465 165 -122 355 -190 936 -338 477 -122 608 -174
733 -296 86 -83 117 -151 123 -271 8 -159 -28 -257 -137 -365 -123 -123 -303
-188 -581 -210 -448 -36 -921 94 -1258 347 -71 54 -72 54 -81 32 -5 -13 -46
-99 -90 -192 -45 -92 -81 -172 -81 -176 0 -21 187 -146 305 -205 220 -109 475
-185 740 -220 157 -21 471 -21 627 0 504 66 852 296 993 654 43 112 58 197 58
341 -1 251 -56 400 -207 557 -198 208 -385 290 -1036 455 -533 135 -636 176
-781 314 -80 77 -112 150 -117 272 -8 164 42 281 163 389 151 135 362 195 690
195 330 -1 648 -87 918 -249 32 -19 60 -34 61 -32 2 2 39 92 84 199 l80 195
-26 22 c-40 34 -207 117 -313 157 -123 45 -261 81 -414 107 -136 24 -523 35
-655 19z"/>
<path d="M4440 2759 c-486 -29 -893 -288 -1100 -700 -143 -287 -185 -650 -114
-996 110 -537 525 -931 1073 -1017 133 -21 366 -22 483 -1 289 50 537 194 701
405 l27 35 0 -212 0 -213 230 0 230 0 0 1340 0 1340 -240 0 -240 0 0 -202 0
-203 -60 67 c-234 259 -573 381 -990 357z m332 -433 c413 -80 685 -394 716
-829 37 -501 -201 -880 -635 -1014 -80 -24 -103 -27 -258 -27 -194 -1 -254 10
-391 74 -113 52 -187 105 -270 193 -81 84 -142 181 -185 291 -51 132 -63 204
-62 391 0 151 3 181 26 267 80 301 281 523 562 620 44 15 105 32 135 37 86 14
281 12 362 -3z"/>
<path d="M8185 2759 c-123 -8 -204 -23 -310 -56 -183 -58 -365 -178 -461 -303
-21 -28 -42 -50 -46 -50 -4 0 -8 88 -8 195 l0 195 -230 0 -230 0 0 -1340 0
-1340 240 0 240 0 0 703 c0 394 4 749 10 808 14 145 41 246 96 359 39 79 61
109 133 181 120 120 218 171 389 205 97 19 274 18 370 -2 94 -19 220 -79 284
-134 94 -82 164 -213 209 -395 9 -37 13 -265 16 -887 l4 -838 239 0 239 0 4
782 c4 834 3 826 54 978 86 259 285 437 550 492 132 27 343 22 448 -12 260
-82 408 -283 445 -605 6 -53 10 -406 10 -862 l0 -773 240 0 241 0 -3 883 c-3
873 -4 883 -26 990 -85 401 -300 655 -655 771 -164 53 -448 74 -637 46 -326
-49 -600 -200 -773 -428 l-40 -52 -48 73 c-65 100 -195 220 -300 279 -194 108
-425 154 -694 137z"/>
<path d="M16690 2759 c-138 -9 -224 -24 -346 -64 -411 -134 -716 -453 -838
-877 -59 -204 -72 -509 -32 -715 122 -618 625 -1034 1294 -1071 388 -22 715
58 968 236 80 56 207 178 202 192 -2 6 -59 77 -128 159 l-125 149 -45 -42
c-191 -179 -401 -263 -681 -273 -265 -10 -458 36 -639 152 -86 56 -150 114
-208 188 -53 69 -136 227 -124 238 4 3 464 95 1022 204 558 108 1036 201 1062
207 l47 9 -5 67 c-27 353 -140 623 -358 850 -271 284 -634 417 -1066 391z
m237 -410 c334 -45 602 -275 697 -597 11 -40 12 -54 3 -57 -13 -5 -311 -62
-1152 -219 -280 -53 -520 -98 -532 -101 -23 -5 -23 -4 -23 92 0 256 100 495
273 660 190 180 455 260 734 222z"/>
<path d="M12240 1888 c0 -708 3 -870 15 -953 22 -143 49 -236 104 -350 144
-301 417 -487 800 -545 96 -14 336 -14 426 0 269 42 525 178 666 355 24 30 47
55 51 55 5 0 8 -88 8 -195 l0 -195 225 0 225 0 0 1340 0 1340 -240 0 -240 0 0
-747 c0 -893 -3 -918 -102 -1122 -43 -88 -64 -117 -132 -185 -160 -160 -336
-226 -604 -226 -192 0 -332 40 -454 130 -118 87 -189 198 -236 369 l-27 96 -3
843 -3 842 -239 0 -240 0 0 -852z"/>
</g>
</svg>
